<svg xmlns="http://www.w3.org/2000/svg" viewBox="0 0 400 2600" width="400" height="2600">
  <!-- ===========================================================
       PLACEHOLDER DE DEMONSTRAÇÃO — troque por um screenshot real
       (PNG/JPG) da página inteira do site do cliente, bem comprido
       na vertical. Ver comentário "TROCAR AQUI" em Process.jsx.
       =========================================================== -->
  <rect width="400" height="2600" fill="#121212"/>

  <!-- Header -->
  <rect x="0" y="0" width="400" height="64" fill="#0A0A0A"/>
  <rect x="24" y="24" width="70" height="16" rx="4" fill="#7C3AED"/>
  <circle cx="340" cy="32" r="10" fill="#2A2A2A"/>
  <circle cx="368" cy="32" r="10" fill="#2A2A2A"/>

  <!-- Hero -->
  <rect x="0" y="64" width="400" height="420" fill="#151515"/>
  <rect x="60" y="150" width="280" height="20" rx="4" fill="#3A3A3A"/>
  <rect x="90" y="184" width="220" height="20" rx="4" fill="#3A3A3A"/>
  <rect x="130" y="240" width="140" height="44" rx="22" fill="#7C3AED"/>
  <rect x="100" y="330" width="200" height="120" rx="12" fill="#1E1E1E" stroke="#7C3AED" stroke-width="1.5"/>

  <!-- Seção de serviços -->
  <rect x="24" y="530" width="130" height="14" rx="4" fill="#5B21B6"/>
  <rect x="24" y="562" width="352" height="200" rx="14" fill="#171717"/>
  <rect x="48" y="586" width="60" height="60" rx="12" fill="#7C3AED" opacity="0.35"/>
  <rect x="126" y="596" width="200" height="14" rx="4" fill="#3A3A3A"/>
  <rect x="126" y="620" width="160" height="12" rx="4" fill="#2A2A2A"/>
  <rect x="126" y="644" width="180" height="12" rx="4" fill="#2A2A2A"/>

  <rect x="24" y="786" width="352" height="200" rx="14" fill="#171717"/>
  <rect x="48" y="810" width="60" height="60" rx="12" fill="#7C3AED" opacity="0.35"/>
  <rect x="126" y="820" width="200" height="14" rx="4" fill="#3A3A3A"/>
  <rect x="126" y="844" width="160" height="12" rx="4" fill="#2A2A2A"/>
  <rect x="126" y="868" width="180" height="12" rx="4" fill="#2A2A2A"/>

  <rect x="24" y="1010" width="352" height="200" rx="14" fill="#171717"/>
  <rect x="48" y="1034" width="60" height="60" rx="12" fill="#7C3AED" opacity="0.35"/>
  <rect x="126" y="1044" width="200" height="14" rx="4" fill="#3A3A3A"/>
  <rect x="126" y="1068" width="160" height="12" rx="4" fill="#2A2A2A"/>
  <rect x="126" y="1092" width="180" height="12" rx="4" fill="#2A2A2A"/>

  <!-- Depoimentos -->
  <rect x="0" y="1260" width="400" height="360" fill="#0F0F0F"/>
  <rect x="24" y="1300" width="130" height="14" rx="4" fill="#5B21B6"/>
  <rect x="24" y="1336" width="352" height="120" rx="14" fill="#1A1A1A"/>
  <rect x="48" y="1360" width="280" height="12" rx="4" fill="#2A2A2A"/>
  <rect x="48" y="1382" width="220" height="12" rx="4" fill="#2A2A2A"/>
  <circle cx="60" cy="1428" r="14" fill="#7C3AED" opacity="0.5"/>
  <rect x="84" y="1420" width="120" height="10" rx="4" fill="#3A3A3A"/>

  <rect x="24" y="1478" width="352" height="120" rx="14" fill="#1A1A1A"/>
  <rect x="48" y="1502" width="280" height="12" rx="4" fill="#2A2A2A"/>
  <rect x="48" y="1524" width="220" height="12" rx="4" fill="#2A2A2A"/>
  <circle cx="60" cy="1570" r="14" fill="#7C3AED" opacity="0.5"/>
  <rect x="84" y="1562" width="120" height="10" rx="4" fill="#3A3A3A"/>

  <!-- CTA -->
  <rect x="0" y="1660" width="400" height="260" fill="#151515"/>
  <rect x="70" y="1740" width="260" height="24" rx="4" fill="#3A3A3A"/>
  <rect x="130" y="1800" width="140" height="44" rx="22" fill="#7C3AED"/>

  <!-- Rodapé -->
  <rect x="0" y="1960" width="400" height="640" fill="#0A0A0A"/>
  <rect x="24" y="2000" width="90" height="16" rx="4" fill="#7C3AED"/>
  <rect x="24" y="2040" width="160" height="10" rx="4" fill="#2A2A2A"/>
  <rect x="24" y="2062" width="120" height="10" rx="4" fill="#2A2A2A"/>
  <rect x="24" y="2110" width="352" height="1" fill="#2A2A2A"/>
  <rect x="24" y="2140" width="200" height="10" rx="4" fill="#242424"/>

  <text x="200" y="2450" fill="#7C3AED" fill-opacity="0.5" font-family="monospace" font-size="20" text-anchor="middle" transform="rotate(-8 200 2450)">
    SCREENSHOT PLACEHOLDER
  </text>
</svg>
